<svg width="23" height="23" viewBox="0 0 23 23" fill="none" xmlns="http://www.w3.org/2000/svg">
<path d="M22.5 11.5001C22.5 5.14878 17.3513 5.53131e-05 11 5.53131e-05C4.64872 5.53131e-05 -0.5 5.14878 -0.5 11.5001C-0.5 17.24 3.70538 21.9976 9.20312 22.8604V14.8243H6.2832V11.5001H9.20312V8.96646C9.20312 6.08427 10.92 4.49224 13.5468 4.49224C14.805 4.49224 16.1211 4.71685 16.1211 4.71685V7.54693H14.671C13.2424 7.54693 12.7969 8.4334 12.7969 9.34284V11.5001H15.9863L15.4765 14.8243H12.7969V22.8604C18.2946 21.9976 22.5 17.24 22.5 11.5001Z" fill="white"/>
</svg>
