<svg width="10" height="13" viewBox="0 0 10 13" fill="none" xmlns="http://www.w3.org/2000/svg">
<path d="M9.86705 3.64625L6.68523 0.14625C6.64298 0.099833 6.59284 0.063026 6.53766 0.037932C6.48248 0.0128379 6.42335 -5.14929e-05 6.36364 1.54599e-07H0.909091C0.667985 1.54599e-07 0.436754 0.105357 0.266267 0.292893C0.0957789 0.48043 0 0.734784 0 1V12C0 12.2652 0.0957789 12.5196 0.266267 12.7071C0.436754 12.8946 0.667985 13 0.909091 13H9.09091C9.33202 13 9.56325 12.8946 9.73373 12.7071C9.90422 12.5196 10 12.2652 10 12V4C10 3.93432 9.98833 3.86927 9.96552 3.80858C9.9427 3.74788 9.90924 3.69272 9.86705 3.64625ZM6.81818 1.70688L8.4483 3.5H6.81818V1.70688ZM9.09091 12H0.909091V1H5.90909V4C5.90909 4.13261 5.95698 4.25979 6.04222 4.35355C6.12747 4.44732 6.24308 4.5 6.36364 4.5H9.09091V12ZM7.27273 7C7.27273 7.13261 7.22484 7.25979 7.13959 7.35355C7.05435 7.44732 6.93874 7.5 6.81818 7.5H3.18182C3.06127 7.5 2.94565 7.44732 2.86041 7.35355C2.77516 7.25979 2.72727 7.13261 2.72727 7C2.72727 6.86739 2.77516 6.74021 2.86041 6.64645C2.94565 6.55268 3.06127 6.5 3.18182 6.5H6.81818C6.93874 6.5 7.05435 6.55268 7.13959 6.64645C7.22484 6.74021 7.27273 6.86739 7.27273 7ZM7.27273 9C7.27273 9.13261 7.22484 9.25979 7.13959 9.35355C7.05435 9.44732 6.93874 9.5 6.81818 9.5H3.18182C3.06127 9.5 2.94565 9.44732 2.86041 9.35355C2.77516 9.25979 2.72727 9.13261 2.72727 9C2.72727 8.86739 2.77516 8.74021 2.86041 8.64645C2.94565 8.55268 3.06127 8.5 3.18182 8.5H6.81818C6.93874 8.5 7.05435 8.55268 7.13959 8.64645C7.22484 8.74021 7.27273 8.86739 7.27273 9Z" fill="black"/>
</svg>
